<?xml version="1.0" standalone="no"?>
<!DOCTYPE svg PUBLIC "-//W3C//DTD SVG 20010904//EN"
 "http://www.w3.org/TR/2001/REC-SVG-20010904/DTD/svg10.dtd">
<svg version="1.0" xmlns="http://www.w3.org/2000/svg"
 width="500.000000pt" height="500.000000pt" viewBox="0 0 500.000000 500.000000"
 preserveAspectRatio="xMidYMid meet">

<g transform="translate(0.000000,500.000000) scale(0.100000,-0.100000)"
fill="#000000" stroke="none">
<path d="M3520 4264 c-47 -13 -132 -35 -190 -49 -58 -14 -114 -28 -125 -31
-56 -15 -327 -86 -375 -98 -30 -7 -125 -32 -210 -55 -85 -22 -240 -64 -345
-92 -104 -28 -235 -63 -290 -79 -55 -15 -145 -40 -200 -55 -304 -82 -608 -180
-627 -202 -17 -20 -23 -390 -11 -645 8 -159 11 -179 28 -192 35 -26 295 -152
505 -244 63 -27 153 -67 200 -87 92 -40 370 -159 545 -232 61 -26 116 -51 122
-56 26 -19 -1 -31 -137 -62 -30 -7 -161 -39 -290 -72 -301 -77 -688 -169 -900
-215 l-65 -14 -3 -377 -2 -377 22 0 c12 0 126 25 252 56 127 30 269 64 316 74
100 22 267 62 400 97 52 14 113 29 135 33 41 9 445 112 683 175 331 88 637
195 648 227 9 28 13 148 15 487 l2 325 -31 26 c-48 40 -428 224 -728 353 -431
185 -621 265 -639 269 -11 2 -20 10 -20 18 0 11 36 24 125 47 69 18 154 41
190 52 65 19 431 108 720 177 85 20 205 48 265 63 l110 26 3 378 c1 207 -1
377 -5 376 -5 0 -46 -11 -93 -25z"/>
</g>
</svg>
